<svg preserveAspectRatio="xMidYMid meet" width="100%" height="100%" overflow="visible" style="display: block;" viewBox="0 0 62.1277 74.2343" fill="none" xmlns="http://www.w3.org/2000/svg">
<g id="Group 3">
<path id="Vector" d="M32.2998 5.4C32.9998 3.3 34.3998 1.5 36.2998 0C38.0998 1.2 39.6998 3.2 40.3998 5.3C38.5998 6.4 37.3998 7.9 36.2998 9.7C35.2998 8 33.8998 6.7 32.2998 5.4Z" fill="var(--fill-0, #1891B1)"/>
<path id="Vector_2" d="M37.2998 11.3C38.5998 7.9 42.2998 5.2 46.3998 4.5C47.1998 7.3 46.8998 12.5 42.8998 15.1C41.8998 15.8 40.5998 16.3 39.1998 17.1C38.6998 15.2 38.0998 13.1 37.2998 11.3Z" fill="var(--fill-0, #1891B1)"/>
<path id="Vector_3" d="M47.5996 13.3003C47.6996 10.4003 50.2996 7.80031 53.7996 8.10031C53.8996 11.3003 51.1996 13.4003 47.5996 13.4003V13.3003Z" fill="var(--fill-0, #1891B1)"/>
<path id="Vector_4" d="M24.8998 12.3004C21.2998 12.4004 18.7998 10.2004 18.7998 6.90044C21.2998 6.70044 24.8998 8.00044 24.8998 12.3004Z" fill="var(--fill-0, #1891B1)"/>
<path id="Vector_5" d="M29.2004 21.8C27.3004 19.8 23.6004 17.6 20.5004 17.1C23.6004 16.8 28.3004 17.9 31.8004 22.6C34.5004 25.9 35.1004 31.8 32.1004 36.3C29.1004 41.1 23.4004 42.4 19.6004 47C21.7004 45.8 24.5004 44.6 27.4004 44.3C33.5004 41.5 36.3004 36.8 38.0004 30.8C39.2004 26.1 43.4004 18.8 52.2004 18.2C49.9004 18.6 46.1004 20.3 43.4004 23.1C45.0004 24 48.2004 24.7 51.9004 23C54.6004 21.8 56.7004 19.4 57.8004 16.6C55.1004 15.4 52.1004 14.7 48.9004 15.1C46.5004 15.4 43.6004 17 42.1004 19.8C40.9004 21.3 39.3004 22.3 38.3004 24.3C38.6004 20.1 37.5004 11.8 32.9004 7.6C31.3004 6 28.9004 4.9 26.5004 4.5C25.4004 8.6 26.7004 13.2 30.5004 15.5C33.6004 17.4 36.6004 18.3 36.3004 24L35.9004 28.6C35.3004 23.6 32.1004 20.8 31.0004 19.1C28.7004 14.9 25.4004 13.7 21.4004 14C19.4004 14.1 17.1004 14.7 14.9004 15.5C15.8004 17.3 18.0004 19.9 19.9004 20.9C22.1004 22.4 25.7004 23.6 29.1004 21.9L29.2004 21.8Z" fill="var(--fill-0, #1891B1)"/>
<path id="Vector_6" d="M31.0996 64.3C32.2996 66.3 34.6996 66.7 35.6996 67.6C38.3996 69.6 38.8996 74.7 43.0996 74.2L44.1996 74C44.5996 73.6 42.8996 71.3 42.3996 69.1C39.3996 68.1 36.4996 65.9 34.7996 62L31.0996 64.3Z" fill="var(--fill-0, #1891B1)"/>
<path id="Vector_7" d="M58.8001 41.8003C58.6001 43.3003 58.1001 44.7003 57.1001 46.1003C58.1001 47.0003 58.9001 48.5003 58.9001 50.0003C58.8001 53.8003 55.7001 56.3003 51.3001 56.1003C48.9001 56.0003 47.4001 55.3003 44.5001 55.1003C34.9001 54.2003 31.0001 59.7003 25.1001 60.8003C23.1001 61.1003 20.7001 60.8003 19.6001 59.0003C18.6001 57.8003 18.4001 55.4003 19.4001 53.8003C21.4001 50.4003 25.9001 48.8003 30.3001 48.6003C35.5001 48.3003 38.9001 49.1003 42.5001 47.1003C44.5001 46.1003 46.4001 44.1003 46.3001 41.6003C46.3001 38.6003 43.1001 36.8003 41.1001 38.8003C40.4001 39.4003 40.3001 40.6003 40.6001 41.3003C41.6001 39.1003 43.7001 40.2003 43.3001 42.1003C42.9001 43.3003 40.9001 45.4003 35.3001 45.6003C32.1001 45.6003 27.6001 45.4003 24.2001 46.6003C20.5001 47.8003 15.9001 50.4003 15.4001 55.6003C15.1001 59.3003 17.7001 64.7003 24.1001 64.8003C30.5001 64.7003 34.4001 59.8003 40.1001 58.3003C44.9001 57.4003 48.3001 59.3003 52.2001 59.3003C57.9001 59.3003 60.5001 56.7003 61.1001 54.8003C63.1001 51.3003 62.1001 44.2003 58.8001 41.8003Z" fill="var(--fill-0, #1891B1)"/>
<path id="Vector_8" d="M16.8 49.1002C16.1 49.6002 14.4 50.2002 13.1 50.2002C10.6 50.1002 7.9 48.6002 7.8 45.7002C7.8 42.1002 11.6 40.8002 13.2 43.2002C13.1 41.3002 10.5 39.6002 7.5 41.3002C5.9 42.3002 4.6 44.3002 4.6 47.1002C4.7 50.1002 6.7 53.1002 10.5 54.0002C6.3 53.8002 3.1 50.8002 3 46.8002C3 44.3002 4.1 41.3002 6.6 39.9002C8.4 38.8002 10.4 38.3002 12.2 38.9002C13.9 39.3002 15.4 40.9002 15.4 42.9002C15.4 46.1002 11.1 47.6002 9.8 44.3002C8.8 47.8002 12.6 49.8002 15.7 47.9002C17.4 46.8002 18.4 45.1002 18.3 42.6002C18 39.1002 15.1 35.8002 10.4 35.7002C8.7 35.7002 7 36.1002 5.6 36.9002C2.5 38.7002 0 41.9002 0 46.6002C0.1 51.9002 4.2 56.8002 10.4 56.9002C11.4 56.9002 12.5 56.7002 13.8 56.5002C14.1 52.6002 15.4 51.2002 16.8 49.1002Z" fill="var(--fill-0, #1891B1)"/>
<path id="Vector_9" d="M36.0996 54.3002C33.1996 54.3002 31.2996 53.8002 28.9996 54.7002C27.3996 55.3002 26.0996 57.1002 24.5996 57.1002C23.0996 57.1002 22.0996 55.3002 25.3996 53.8002C27.8996 52.9002 31.0996 52.6002 35.0996 52.8002C39.0996 52.7002 42.0996 52.3002 45.3996 50.6002C48.8996 48.7002 53.6996 43.8002 53.1996 36.4002C55.8996 39.3002 54.1996 42.6002 52.9996 44.8002C54.0996 44.7002 54.9996 44.9002 55.8996 45.3002C57.8996 42.8002 58.3996 37.8002 55.4996 34.8002C54.5996 33.8002 53.1996 32.9002 51.8996 32.7002C50.3996 30.1002 47.3996 27.2002 44.0996 27.2002C40.5996 27.2002 39.0996 30.1002 38.9996 33.1002C40.5996 32.1002 42.0996 31.7002 43.9996 31.8002C47.0996 31.9002 50.8996 34.2002 50.6996 40.1002C50.3996 36.2002 46.8996 33.3002 43.3996 33.3002C40.5996 33.3002 38.3996 34.8002 37.0996 37.1002C35.6996 39.9002 33.5996 42.1002 31.0996 44.0002C33.4996 44.2002 36.8996 44.2002 39.5996 43.4002C37.5996 40.7002 39.1996 36.4002 42.9996 36.2002C45.9996 36.2002 47.8996 38.3002 47.8996 41.3002C47.8996 46.3002 42.9996 49.8002 35.0996 49.8002C30.6996 49.8002 25.3996 49.8002 22.3996 52.3002C20.8996 53.4002 20.0996 54.7002 20.0996 56.1002C20.0996 58.6002 21.8996 60.1002 24.1996 60.1002C27.3996 59.9002 31.2996 56.6002 35.8996 54.6002V54.3002H36.0996Z" fill="var(--fill-0, #1891B1)"/>
<path id="Vector_10" d="M36.0996 61.2001C37.8996 65.3001 41.0996 68.1001 46.3996 68.1001C50.5996 68.1001 54.8996 65.3001 55.8996 61.1001C50.3996 62.1001 48.3996 60.6001 42.8996 60.2001C40.4996 59.9001 38.0996 60.3001 36.0996 61.2001ZM40.2996 62.3001C42.4996 62.6001 45.5996 65.1001 50.6996 63.8001C49.0996 65.2001 47.6996 65.6001 45.8996 65.6001C43.6996 65.6001 41.2996 64.3001 40.2996 62.3001Z" fill="var(--fill-0, #1891B1)"/>
<path id="Vector_11" d="M42.4004 53.3C46.1004 53.3 48.6004 54.6 51.7004 54.6C54.9004 54.6 57.4004 53.1 57.3004 49.8C57.1004 46.6 53.4004 45.2 51.7004 47.3C51.1004 48.1 51.0004 49.3 51.4004 50.1C52.1004 48.1 54.2004 48.6 54.2004 50.1C54.2004 50.9 53.2004 51.8 51.6004 51.7C50.1004 51.7 48.4004 51.2 47.3004 51.1C45.9004 51.9 44.1004 52.8 42.4004 53.3Z" fill="var(--fill-0, #1891B1)"/>
<path id="Vector_12" d="M5.2002 35.6003C5.9002 33.2003 9.10019 29.1003 14.3002 29.1003C16.4002 26.8003 19.9002 24.8003 24.5002 25.7003C25.4002 25.7003 26.1002 24.8003 28.1002 24.9003C30.4002 24.9003 32.5002 26.9003 32.4002 30.1003C32.4002 33.4003 30.5002 36.9003 27.8002 39.4003C28.4002 38.1003 28.7002 36.8003 28.7002 35.3003C28.6002 31.8003 25.7002 28.7003 21.9002 28.6003C18.4002 28.6003 15.0002 31.1003 14.0002 34.8003C11.9002 34.1003 8.6002 33.7003 5.2002 35.6003Z" fill="var(--fill-0, #1891B1)"/>
<path id="Vector_13" d="M15.5 35.4001C15.9 32.9001 18.6 30.1001 21.6 30.1001C24.4 30.1001 27.1 32.3001 27.1 35.2001C27.1 40.4001 21.9 42.3001 19.9 44.3001C20.1 42.2001 19.7 40.8001 19.1 39.3001C19 37.8001 19.4 36.3001 20.9 35.3001C19.6 37.2001 22.4 38.8001 23.9 37.1001C25.1 35.7001 24 33.6001 22 33.4001C20 33.4001 18.4 34.9001 17.7 37.2001L15.5 35.4001Z" fill="var(--fill-0, #1891B1)"/>
</g>
</svg>
